<svg width="367" height="76" viewBox="0 0 367 76" fill="none" xmlns="http://www.w3.org/2000/svg">
<rect x="0.5" y="0.5" width="366" height="75" rx="37.5" fill="white"/>
<path d="M82.1836 35.5938V44.5H80.377V33.9336H82.1348L82.1836 35.5938ZM85.4844 33.875L85.4746 35.5547C85.3249 35.5221 85.1816 35.5026 85.0449 35.4961C84.9147 35.4831 84.765 35.4766 84.5957 35.4766C84.179 35.4766 83.8112 35.5417 83.4922 35.6719C83.1732 35.8021 82.903 35.9844 82.6816 36.2188C82.4603 36.4531 82.2845 36.7331 82.1543 37.0586C82.0306 37.3776 81.9492 37.7292 81.9102 38.1133L81.4023 38.4062C81.4023 37.7682 81.4642 37.1693 81.5879 36.6094C81.7181 36.0495 81.9167 35.5547 82.1836 35.125C82.4505 34.6888 82.7891 34.3503 83.1992 34.1094C83.6159 33.862 84.1107 33.7383 84.6836 33.7383C84.8138 33.7383 84.9635 33.7546 85.1328 33.7871C85.3021 33.8132 85.4193 33.8424 85.4844 33.875ZM88.9609 35.5938V44.5H87.1543V33.9336H88.9121L88.9609 35.5938ZM92.2617 33.875L92.252 35.5547C92.1022 35.5221 91.959 35.5026 91.8223 35.4961C91.6921 35.4831 91.5423 35.4766 91.373 35.4766C90.9564 35.4766 90.5885 35.5417 90.2695 35.6719C89.9505 35.8021 89.6803 35.9844 89.459 36.2188C89.2376 36.4531 89.0618 36.7331 88.9316 37.0586C88.8079 37.3776 88.7266 37.7292 88.6875 38.1133L88.1797 38.4062C88.1797 37.7682 88.2415 37.1693 88.3652 36.6094C88.4954 36.0495 88.694 35.5547 88.9609 35.125C89.2279 34.6888 89.5664 34.3503 89.9766 34.1094C90.3932 33.862 90.888 33.7383 91.4609 33.7383C91.5911 33.7383 91.7409 33.7546 91.9102 33.7871C92.0794 33.8132 92.1966 33.8424 92.2617 33.875ZM98.1211 44.6953C97.3854 44.6953 96.7181 44.5716 96.1191 44.3242C95.5267 44.0703 95.0156 43.7155 94.5859 43.2598C94.1628 42.804 93.8372 42.2637 93.6094 41.6387C93.3815 41.0137 93.2676 40.3301 93.2676 39.5879V39.1777C93.2676 38.3184 93.3945 37.5534 93.6484 36.8828C93.9023 36.2057 94.2474 35.6328 94.6836 35.1641C95.1198 34.6953 95.6146 34.3405 96.168 34.0996C96.7214 33.8587 97.2943 33.7383 97.8867 33.7383C98.6419 33.7383 99.293 33.8685 99.8398 34.1289C100.393 34.3893 100.846 34.7539 101.197 35.2227C101.549 35.6849 101.809 36.2318 101.979 36.8633C102.148 37.4883 102.232 38.1719 102.232 38.9141V39.7246H94.3418V38.25H100.426V38.1133C100.4 37.6445 100.302 37.1888 100.133 36.7461C99.9701 36.3034 99.7096 35.9388 99.3516 35.6523C98.9935 35.3659 98.5052 35.2227 97.8867 35.2227C97.4766 35.2227 97.099 35.3105 96.7539 35.4863C96.4089 35.6556 96.1126 35.9095 95.8652 36.248C95.6178 36.5866 95.4258 37 95.2891 37.4883C95.1523 37.9766 95.084 38.5397 95.084 39.1777V39.5879C95.084 40.0892 95.1523 40.5612 95.2891 41.0039C95.4323 41.4401 95.6374 41.8242 95.9043 42.1562C96.1777 42.4883 96.5065 42.7487 96.8906 42.9375C97.2812 43.1263 97.724 43.2207 98.2188 43.2207C98.8568 43.2207 99.3971 43.0905 99.8398 42.8301C100.283 42.5697 100.67 42.2214 101.002 41.7852L102.096 42.6543C101.868 42.9993 101.578 43.3281 101.227 43.6406C100.875 43.9531 100.442 44.207 99.9277 44.4023C99.4199 44.5977 98.8177 44.6953 98.1211 44.6953ZM108.727 44.6953C107.991 44.6953 107.324 44.5716 106.725 44.3242C106.132 44.0703 105.621 43.7155 105.191 43.2598C104.768 42.804 104.443 42.2637 104.215 41.6387C103.987 41.0137 103.873 40.3301 103.873 39.5879V39.1777C103.873 38.3184 104 37.5534 104.254 36.8828C104.508 36.2057 104.853 35.6328 105.289 35.1641C105.725 34.6953 106.22 34.3405 106.773 34.0996C107.327 33.8587 107.9 33.7383 108.492 33.7383C109.247 33.7383 109.898 33.8685 110.445 34.1289C110.999 34.3893 111.451 34.7539 111.803 35.2227C112.154 35.6849 112.415 36.2318 112.584 36.8633C112.753 37.4883 112.838 38.1719 112.838 38.9141V39.7246H104.947V38.25H111.031V38.1133C111.005 37.6445 110.908 37.1888 110.738 36.7461C110.576 36.3034 110.315 35.9388 109.957 35.6523C109.599 35.3659 109.111 35.2227 108.492 35.2227C108.082 35.2227 107.704 35.3105 107.359 35.4863C107.014 35.6556 106.718 35.9095 106.471 36.248C106.223 36.5866 106.031 37 105.895 37.4883C105.758 37.9766 105.689 38.5397 105.689 39.1777V39.5879C105.689 40.0892 105.758 40.5612 105.895 41.0039C106.038 41.4401 106.243 41.8242 106.51 42.1562C106.783 42.4883 107.112 42.7487 107.496 42.9375C107.887 43.1263 108.329 43.2207 108.824 43.2207C109.462 43.2207 110.003 43.0905 110.445 42.8301C110.888 42.5697 111.275 42.2214 111.607 41.7852L112.701 42.6543C112.473 42.9993 112.184 43.3281 111.832 43.6406C111.48 43.9531 111.048 44.207 110.533 44.4023C110.025 44.5977 109.423 44.6953 108.727 44.6953ZM116.754 35.5938V44.5H114.947V33.9336H116.705L116.754 35.5938ZM120.055 33.875L120.045 35.5547C119.895 35.5221 119.752 35.5026 119.615 35.4961C119.485 35.4831 119.335 35.4766 119.166 35.4766C118.749 35.4766 118.382 35.5417 118.062 35.6719C117.743 35.8021 117.473 35.9844 117.252 36.2188C117.031 36.4531 116.855 36.7331 116.725 37.0586C116.601 37.3776 116.52 37.7292 116.48 38.1133L115.973 38.4062C115.973 37.7682 116.035 37.1693 116.158 36.6094C116.288 36.0495 116.487 35.5547 116.754 35.125C117.021 34.6888 117.359 34.3503 117.77 34.1094C118.186 33.862 118.681 33.7383 119.254 33.7383C119.384 33.7383 119.534 33.7546 119.703 33.7871C119.872 33.8132 119.99 33.8424 120.055 33.875ZM127.564 42.6934V37.2539C127.564 36.8372 127.48 36.4759 127.311 36.1699C127.148 35.8574 126.9 35.6165 126.568 35.4473C126.236 35.278 125.826 35.1934 125.338 35.1934C124.882 35.1934 124.482 35.2715 124.137 35.4277C123.798 35.584 123.531 35.7891 123.336 36.043C123.147 36.2969 123.053 36.5703 123.053 36.8633H121.246C121.246 36.4857 121.344 36.1113 121.539 35.7402C121.734 35.3691 122.014 35.0339 122.379 34.7344C122.75 34.4284 123.193 34.1875 123.707 34.0117C124.228 33.8294 124.807 33.7383 125.445 33.7383C126.214 33.7383 126.891 33.8685 127.477 34.1289C128.069 34.3893 128.531 34.7832 128.863 35.3105C129.202 35.8314 129.371 36.4857 129.371 37.2734V42.1953C129.371 42.5469 129.4 42.9212 129.459 43.3184C129.524 43.7155 129.618 44.0573 129.742 44.3438V44.5H127.857C127.766 44.2917 127.695 44.015 127.643 43.6699C127.59 43.3184 127.564 42.9928 127.564 42.6934ZM127.877 38.0938L127.896 39.3633H126.07C125.556 39.3633 125.097 39.4056 124.693 39.4902C124.29 39.5684 123.951 39.6888 123.678 39.8516C123.404 40.0143 123.196 40.2194 123.053 40.4668C122.91 40.7077 122.838 40.9909 122.838 41.3164C122.838 41.6484 122.913 41.9512 123.062 42.2246C123.212 42.498 123.437 42.7161 123.736 42.8789C124.042 43.0352 124.417 43.1133 124.859 43.1133C125.413 43.1133 125.901 42.9961 126.324 42.7617C126.747 42.5273 127.083 42.2409 127.33 41.9023C127.584 41.5638 127.721 41.235 127.74 40.916L128.512 41.7852C128.466 42.0586 128.342 42.3613 128.141 42.6934C127.939 43.0254 127.669 43.3444 127.33 43.6504C126.998 43.9499 126.601 44.2005 126.139 44.4023C125.683 44.5977 125.169 44.6953 124.596 44.6953C123.88 44.6953 123.251 44.5553 122.711 44.2754C122.177 43.9954 121.76 43.6211 121.461 43.1523C121.168 42.6771 121.021 42.1465 121.021 41.5605C121.021 40.9941 121.132 40.4961 121.354 40.0664C121.575 39.6302 121.894 39.2689 122.311 38.9824C122.727 38.6895 123.229 38.4681 123.814 38.3184C124.4 38.1686 125.055 38.0938 125.777 38.0938H127.877ZM136.637 33.9336V35.3203H130.924V33.9336H136.637ZM132.857 31.3652H134.664V41.8828C134.664 42.2409 134.719 42.5111 134.83 42.6934C134.941 42.8757 135.084 42.9961 135.26 43.0547C135.436 43.1133 135.624 43.1426 135.826 43.1426C135.976 43.1426 136.132 43.1296 136.295 43.1035C136.464 43.071 136.591 43.0449 136.676 43.0254L136.686 44.5C136.542 44.5456 136.354 44.5879 136.119 44.627C135.891 44.6725 135.615 44.6953 135.289 44.6953C134.846 44.6953 134.439 44.6074 134.068 44.4316C133.697 44.2559 133.401 43.9629 133.18 43.5527C132.965 43.1361 132.857 42.5762 132.857 41.873V31.3652ZM138.785 43.543C138.785 43.237 138.88 42.9798 139.068 42.7715C139.264 42.5566 139.544 42.4492 139.908 42.4492C140.273 42.4492 140.549 42.5566 140.738 42.7715C140.934 42.9798 141.031 43.237 141.031 43.543C141.031 43.8424 140.934 44.0964 140.738 44.3047C140.549 44.513 140.273 44.6172 139.908 44.6172C139.544 44.6172 139.264 44.513 139.068 44.3047C138.88 44.0964 138.785 43.8424 138.785 43.543ZM150.182 41.6973C150.182 41.4368 150.123 41.196 150.006 40.9746C149.895 40.7467 149.664 40.5417 149.312 40.3594C148.967 40.1706 148.447 40.0078 147.75 39.8711C147.164 39.7474 146.633 39.6009 146.158 39.4316C145.689 39.2624 145.289 39.0573 144.957 38.8164C144.632 38.5755 144.381 38.2923 144.205 37.9668C144.029 37.6413 143.941 37.2604 143.941 36.8242C143.941 36.4076 144.033 36.0137 144.215 35.6426C144.404 35.2715 144.667 34.9427 145.006 34.6562C145.351 34.3698 145.764 34.1452 146.246 33.9824C146.728 33.8197 147.265 33.7383 147.857 33.7383C148.704 33.7383 149.426 33.888 150.025 34.1875C150.624 34.487 151.083 34.8874 151.402 35.3887C151.721 35.8835 151.881 36.4336 151.881 37.0391H150.074C150.074 36.7461 149.986 36.4629 149.811 36.1895C149.641 35.9095 149.391 35.6784 149.059 35.4961C148.733 35.3138 148.333 35.2227 147.857 35.2227C147.356 35.2227 146.949 35.3008 146.637 35.457C146.331 35.6068 146.106 35.7988 145.963 36.0332C145.826 36.2676 145.758 36.515 145.758 36.7754C145.758 36.9707 145.79 37.1465 145.855 37.3027C145.927 37.4525 146.051 37.5924 146.227 37.7227C146.402 37.8464 146.65 37.9635 146.969 38.0742C147.288 38.1849 147.695 38.2956 148.189 38.4062C149.055 38.6016 149.768 38.8359 150.328 39.1094C150.888 39.3828 151.305 39.7181 151.578 40.1152C151.852 40.5124 151.988 40.9941 151.988 41.5605C151.988 42.0228 151.891 42.446 151.695 42.8301C151.507 43.2142 151.23 43.5462 150.865 43.8262C150.507 44.0996 150.077 44.3145 149.576 44.4707C149.081 44.6204 148.525 44.6953 147.906 44.6953C146.975 44.6953 146.188 44.5293 145.543 44.1973C144.898 43.8652 144.41 43.4355 144.078 42.9082C143.746 42.3809 143.58 41.8242 143.58 41.2383H145.396C145.423 41.7331 145.566 42.127 145.826 42.4199C146.087 42.7064 146.406 42.9115 146.783 43.0352C147.161 43.1523 147.535 43.2109 147.906 43.2109C148.401 43.2109 148.814 43.1458 149.146 43.0156C149.485 42.8854 149.742 42.7064 149.918 42.4785C150.094 42.2507 150.182 41.9902 150.182 41.6973ZM160.592 42.6934V37.2539C160.592 36.8372 160.507 36.4759 160.338 36.1699C160.175 35.8574 159.928 35.6165 159.596 35.4473C159.264 35.278 158.854 35.1934 158.365 35.1934C157.91 35.1934 157.509 35.2715 157.164 35.4277C156.826 35.584 156.559 35.7891 156.363 36.043C156.174 36.2969 156.08 36.5703 156.08 36.8633H154.273C154.273 36.4857 154.371 36.1113 154.566 35.7402C154.762 35.3691 155.042 35.0339 155.406 34.7344C155.777 34.4284 156.22 34.1875 156.734 34.0117C157.255 33.8294 157.835 33.7383 158.473 33.7383C159.241 33.7383 159.918 33.8685 160.504 34.1289C161.096 34.3893 161.559 34.7832 161.891 35.3105C162.229 35.8314 162.398 36.4857 162.398 37.2734V42.1953C162.398 42.5469 162.428 42.9212 162.486 43.3184C162.551 43.7155 162.646 44.0573 162.77 44.3438V44.5H160.885C160.794 44.2917 160.722 44.015 160.67 43.6699C160.618 43.3184 160.592 42.9928 160.592 42.6934ZM160.904 38.0938L160.924 39.3633H159.098C158.583 39.3633 158.124 39.4056 157.721 39.4902C157.317 39.5684 156.979 39.6888 156.705 39.8516C156.432 40.0143 156.223 40.2194 156.08 40.4668C155.937 40.7077 155.865 40.9909 155.865 41.3164C155.865 41.6484 155.94 41.9512 156.09 42.2246C156.24 42.498 156.464 42.7161 156.764 42.8789C157.07 43.0352 157.444 43.1133 157.887 43.1133C158.44 43.1133 158.928 42.9961 159.352 42.7617C159.775 42.5273 160.11 42.2409 160.357 41.9023C160.611 41.5638 160.748 41.235 160.768 40.916L161.539 41.7852C161.493 42.0586 161.37 42.3613 161.168 42.6934C160.966 43.0254 160.696 43.3444 160.357 43.6504C160.025 43.9499 159.628 44.2005 159.166 44.4023C158.71 44.5977 158.196 44.6953 157.623 44.6953C156.907 44.6953 156.279 44.5553 155.738 44.2754C155.204 43.9954 154.788 43.6211 154.488 43.1523C154.195 42.6771 154.049 42.1465 154.049 41.5605C154.049 40.9941 154.16 40.4961 154.381 40.0664C154.602 39.6302 154.921 39.2689 155.338 38.9824C155.755 38.6895 156.256 38.4681 156.842 38.3184C157.428 38.1686 158.082 38.0938 158.805 38.0938H160.904ZM167.057 29.5V44.5H165.24V29.5H167.057ZM173.512 33.9336L168.902 38.8652L166.324 41.541L166.178 39.6172L168.023 37.4102L171.305 33.9336H173.512ZM171.861 44.5L168.092 39.4609L169.029 37.8496L173.99 44.5H171.861ZM181.842 42.0586V33.9336H183.658V44.5H181.93L181.842 42.0586ZM182.184 39.832L182.936 39.8125C182.936 40.5156 182.861 41.1667 182.711 41.7656C182.568 42.3581 182.333 42.8724 182.008 43.3086C181.682 43.7448 181.256 44.0866 180.729 44.334C180.201 44.5749 179.56 44.6953 178.805 44.6953C178.29 44.6953 177.818 44.6204 177.389 44.4707C176.965 44.321 176.601 44.0898 176.295 43.7773C175.989 43.4648 175.751 43.0579 175.582 42.5566C175.419 42.0553 175.338 41.4531 175.338 40.75V33.9336H177.145V40.7695C177.145 41.2448 177.197 41.6387 177.301 41.9512C177.411 42.2572 177.558 42.5013 177.74 42.6836C177.929 42.8594 178.137 42.9831 178.365 43.0547C178.6 43.1263 178.84 43.1621 179.088 43.1621C179.856 43.1621 180.465 43.0156 180.914 42.7227C181.363 42.4232 181.686 42.0228 181.881 41.5215C182.083 41.0137 182.184 40.4505 182.184 39.832ZM201.988 39.5879C201.962 40.1868 201.871 40.7891 201.715 41.3945C201.559 41.9935 201.324 42.5436 201.012 43.0449C200.699 43.5462 200.292 43.9499 199.791 44.2559C199.296 44.5553 198.697 44.7051 197.994 44.7051C197.545 44.7051 197.151 44.627 196.812 44.4707C196.48 44.3079 196.207 44.0768 195.992 43.7773C195.784 43.4779 195.637 43.1165 195.553 42.6934C195.475 42.2702 195.462 41.7982 195.514 41.2773L196.012 35.8672H197.447L196.949 41.2773C196.91 41.7526 196.92 42.14 196.979 42.4395C197.044 42.7389 197.141 42.9701 197.271 43.1328C197.402 43.2891 197.548 43.3965 197.711 43.4551C197.88 43.5137 198.043 43.543 198.199 43.543C198.59 43.543 198.938 43.4421 199.244 43.2402C199.55 43.0319 199.807 42.7487 200.016 42.3906C200.23 42.026 200.396 41.6061 200.514 41.1309C200.631 40.6491 200.702 40.1348 200.729 39.5879C200.774 38.6178 200.729 37.7259 200.592 36.9121C200.462 36.0983 200.237 35.3757 199.918 34.7441C199.605 34.1126 199.195 33.5788 198.688 33.1426C198.18 32.7064 197.574 32.3743 196.871 32.1465C196.168 31.9186 195.364 31.8047 194.459 31.8047C193.639 31.8047 192.88 31.9316 192.184 32.1855C191.493 32.4329 190.872 32.791 190.318 33.2598C189.771 33.7285 189.299 34.2917 188.902 34.9492C188.512 35.6068 188.202 36.349 187.975 37.1758C187.753 37.9961 187.623 38.8815 187.584 39.832C187.538 40.8086 187.59 41.707 187.74 42.5273C187.89 43.3411 188.131 44.0671 188.463 44.7051C188.801 45.3496 189.228 45.8932 189.742 46.3359C190.257 46.7852 190.852 47.1237 191.529 47.3516C192.206 47.5859 192.962 47.7031 193.795 47.7031C194.368 47.7031 194.947 47.6348 195.533 47.498C196.126 47.3613 196.62 47.1758 197.018 46.9414L197.389 48.0547C196.933 48.3477 196.363 48.5658 195.68 48.709C195.003 48.8522 194.361 48.9238 193.756 48.9238C192.766 48.9238 191.861 48.7871 191.041 48.5137C190.227 48.2467 189.505 47.8529 188.873 47.332C188.248 46.8177 187.727 46.1895 187.311 45.4473C186.894 44.7116 186.588 43.8717 186.393 42.9277C186.197 41.9837 186.122 40.9518 186.168 39.832C186.214 38.7643 186.373 37.7585 186.646 36.8145C186.926 35.8704 187.307 35.0143 187.789 34.2461C188.271 33.4779 188.844 32.8171 189.508 32.2637C190.178 31.7038 190.93 31.2741 191.764 30.9746C192.604 30.6751 193.515 30.5254 194.498 30.5254C195.501 30.5254 196.409 30.6621 197.223 30.9355C198.036 31.209 198.749 31.6029 199.361 32.1172C199.98 32.6315 200.491 33.2598 200.895 34.002C201.298 34.7441 201.591 35.584 201.773 36.5215C201.962 37.459 202.034 38.4811 201.988 39.5879ZM191.959 40.418C191.913 40.8737 191.913 41.2806 191.959 41.6387C192.005 41.9967 192.092 42.2995 192.223 42.5469C192.353 42.7943 192.522 42.9831 192.73 43.1133C192.945 43.237 193.196 43.2988 193.482 43.2988C193.671 43.2988 193.87 43.2533 194.078 43.1621C194.286 43.0645 194.492 42.9147 194.693 42.7129C194.895 42.5111 195.084 42.2474 195.26 41.9219C195.436 41.5964 195.582 41.2057 195.699 40.75L196.344 41.4531C196.194 41.987 195.999 42.4557 195.758 42.8594C195.523 43.263 195.26 43.6016 194.967 43.875C194.674 44.1484 194.361 44.3568 194.029 44.5C193.704 44.6367 193.372 44.7051 193.033 44.7051C192.558 44.7051 192.141 44.6042 191.783 44.4023C191.425 44.194 191.135 43.901 190.914 43.5234C190.693 43.1458 190.536 42.6966 190.445 42.1758C190.361 41.6484 190.348 41.0625 190.406 40.418C190.465 39.7344 190.585 39.1029 190.768 38.5234C190.95 37.944 191.174 37.4264 191.441 36.9707C191.715 36.515 192.021 36.1276 192.359 35.8086C192.704 35.4896 193.069 35.2487 193.453 35.0859C193.837 34.9167 194.231 34.832 194.635 34.832C195.338 34.832 195.891 34.9362 196.295 35.1445C196.699 35.3464 197.083 35.5872 197.447 35.8672L196.617 36.834C196.428 36.6517 196.181 36.4824 195.875 36.3262C195.569 36.1699 195.208 36.0918 194.791 36.0918C194.433 36.0918 194.098 36.1829 193.785 36.3652C193.473 36.5475 193.189 36.821 192.936 37.1855C192.688 37.5501 192.48 38.0026 192.311 38.543C192.141 39.0768 192.024 39.7018 191.959 40.418ZM204.371 29.5H206.188V42.4492L206.031 44.5H204.371V29.5ZM213.326 39.1289V39.334C213.326 40.1022 213.235 40.8151 213.053 41.4727C212.87 42.1237 212.604 42.6901 212.252 43.1719C211.9 43.6536 211.471 44.028 210.963 44.2949C210.455 44.5618 209.872 44.6953 209.215 44.6953C208.544 44.6953 207.955 44.5814 207.447 44.3535C206.946 44.1191 206.523 43.7839 206.178 43.3477C205.833 42.9115 205.556 42.3841 205.348 41.7656C205.146 41.1471 205.006 40.4505 204.928 39.6758V38.7773C205.006 37.9961 205.146 37.2962 205.348 36.6777C205.556 36.0592 205.833 35.5319 206.178 35.0957C206.523 34.653 206.946 34.3177 207.447 34.0898C207.949 33.8555 208.531 33.7383 209.195 33.7383C209.859 33.7383 210.449 33.8685 210.963 34.1289C211.477 34.3828 211.907 34.7474 212.252 35.2227C212.604 35.6979 212.87 36.2676 213.053 36.9316C213.235 37.5892 213.326 38.3216 213.326 39.1289ZM211.51 39.334V39.1289C211.51 38.6016 211.461 38.1068 211.363 37.6445C211.266 37.1758 211.109 36.7656 210.895 36.4141C210.68 36.056 210.396 35.776 210.045 35.5742C209.693 35.3659 209.26 35.2617 208.746 35.2617C208.29 35.2617 207.893 35.3398 207.555 35.4961C207.223 35.6523 206.939 35.8639 206.705 36.1309C206.471 36.3913 206.279 36.6908 206.129 37.0293C205.986 37.3613 205.878 37.7064 205.807 38.0645V40.418C205.911 40.8737 206.08 41.3132 206.314 41.7363C206.555 42.153 206.874 42.4948 207.271 42.7617C207.675 43.0286 208.173 43.1621 208.766 43.1621C209.254 43.1621 209.671 43.0645 210.016 42.8691C210.367 42.6673 210.65 42.3906 210.865 42.0391C211.087 41.6875 211.249 41.2806 211.354 40.8184C211.458 40.3561 211.51 39.8613 211.51 39.334ZM222.076 42.0586V33.9336H223.893V44.5H222.164L222.076 42.0586ZM222.418 39.832L223.17 39.8125C223.17 40.5156 223.095 41.1667 222.945 41.7656C222.802 42.3581 222.568 42.8724 222.242 43.3086C221.917 43.7448 221.49 44.0866 220.963 44.334C220.436 44.5749 219.794 44.6953 219.039 44.6953C218.525 44.6953 218.053 44.6204 217.623 44.4707C217.2 44.321 216.835 44.0898 216.529 43.7773C216.223 43.4648 215.986 43.0579 215.816 42.5566C215.654 42.0553 215.572 41.4531 215.572 40.75V33.9336H217.379V40.7695C217.379 41.2448 217.431 41.6387 217.535 41.9512C217.646 42.2572 217.792 42.5013 217.975 42.6836C218.163 42.8594 218.372 42.9831 218.6 43.0547C218.834 43.1263 219.075 43.1621 219.322 43.1621C220.09 43.1621 220.699 43.0156 221.148 42.7227C221.598 42.4232 221.92 42.0228 222.115 41.5215C222.317 41.0137 222.418 40.4505 222.418 39.832ZM228.443 36.0332V44.5H226.627V33.9336H228.346L228.443 36.0332ZM228.072 38.8164L227.232 38.7871C227.239 38.0645 227.333 37.3971 227.516 36.7852C227.698 36.1667 227.968 35.6296 228.326 35.1738C228.684 34.7181 229.13 34.3665 229.664 34.1191C230.198 33.8652 230.816 33.7383 231.52 33.7383C232.014 33.7383 232.47 33.8099 232.887 33.9531C233.303 34.0898 233.665 34.3079 233.971 34.6074C234.277 34.9069 234.514 35.291 234.684 35.7598C234.853 36.2285 234.938 36.7949 234.938 37.459V44.5H233.131V37.5469C233.131 36.9935 233.036 36.5508 232.848 36.2188C232.665 35.8867 232.405 35.6458 232.066 35.4961C231.728 35.3398 231.331 35.2617 230.875 35.2617C230.341 35.2617 229.895 35.3561 229.537 35.5449C229.179 35.7337 228.893 35.9941 228.678 36.3262C228.463 36.6582 228.307 37.0391 228.209 37.4688C228.118 37.8919 228.072 38.3411 228.072 38.8164ZM234.918 37.8203L233.707 38.1914C233.714 37.612 233.808 37.0553 233.99 36.5215C234.179 35.9876 234.449 35.5124 234.801 35.0957C235.159 34.679 235.598 34.3503 236.119 34.1094C236.64 33.862 237.236 33.7383 237.906 33.7383C238.473 33.7383 238.974 33.8132 239.41 33.9629C239.853 34.1126 240.224 34.3438 240.523 34.6562C240.829 34.9622 241.061 35.3561 241.217 35.8379C241.373 36.3197 241.451 36.8926 241.451 37.5566V44.5H239.635V37.5371C239.635 36.9447 239.54 36.4857 239.352 36.1602C239.169 35.8281 238.909 35.597 238.57 35.4668C238.238 35.3301 237.841 35.2617 237.379 35.2617C236.982 35.2617 236.63 35.3301 236.324 35.4668C236.018 35.6035 235.761 35.7923 235.553 36.0332C235.344 36.2676 235.185 36.5378 235.074 36.8438C234.97 37.1497 234.918 37.4753 234.918 37.8203ZM246.148 33.9336V44.5H244.332V33.9336H246.148ZM244.195 31.1309C244.195 30.8379 244.283 30.5905 244.459 30.3887C244.641 30.1868 244.908 30.0859 245.26 30.0859C245.605 30.0859 245.868 30.1868 246.051 30.3887C246.24 30.5905 246.334 30.8379 246.334 31.1309C246.334 31.4108 246.24 31.6517 246.051 31.8535C245.868 32.0488 245.605 32.1465 245.26 32.1465C244.908 32.1465 244.641 32.0488 244.459 31.8535C244.283 31.6517 244.195 31.4108 244.195 31.1309ZM251.012 29.5V44.5H249.195V29.5H251.012ZM253.941 43.543C253.941 43.237 254.036 42.9798 254.225 42.7715C254.42 42.5566 254.7 42.4492 255.064 42.4492C255.429 42.4492 255.706 42.5566 255.895 42.7715C256.09 42.9798 256.188 43.237 256.188 43.543C256.188 43.8424 256.09 44.0964 255.895 44.3047C255.706 44.513 255.429 44.6172 255.064 44.6172C254.7 44.6172 254.42 44.513 254.225 44.3047C254.036 44.0964 253.941 43.8424 253.941 43.543ZM260.992 36.1895V44.5H259.186V33.9336H260.895L260.992 36.1895ZM260.562 38.8164L259.811 38.7871C259.817 38.0645 259.924 37.3971 260.133 36.7852C260.341 36.1667 260.634 35.6296 261.012 35.1738C261.389 34.7181 261.839 34.3665 262.359 34.1191C262.887 33.8652 263.469 33.7383 264.107 33.7383C264.628 33.7383 265.097 33.8099 265.514 33.9531C265.93 34.0898 266.285 34.3112 266.578 34.6172C266.878 34.9232 267.105 35.3203 267.262 35.8086C267.418 36.2904 267.496 36.8796 267.496 37.5762V44.5H265.68V37.5566C265.68 37.0033 265.598 36.5605 265.436 36.2285C265.273 35.89 265.035 35.6458 264.723 35.4961C264.41 35.3398 264.026 35.2617 263.57 35.2617C263.121 35.2617 262.711 35.3561 262.34 35.5449C261.975 35.7337 261.66 35.9941 261.393 36.3262C261.132 36.6582 260.927 37.0391 260.777 37.4688C260.634 37.8919 260.562 38.3411 260.562 38.8164ZM274.625 44.6953C273.889 44.6953 273.222 44.5716 272.623 44.3242C272.031 44.0703 271.52 43.7155 271.09 43.2598C270.667 42.804 270.341 42.2637 270.113 41.6387C269.885 41.0137 269.771 40.3301 269.771 39.5879V39.1777C269.771 38.3184 269.898 37.5534 270.152 36.8828C270.406 36.2057 270.751 35.6328 271.188 35.1641C271.624 34.6953 272.118 34.3405 272.672 34.0996C273.225 33.8587 273.798 33.7383 274.391 33.7383C275.146 33.7383 275.797 33.8685 276.344 34.1289C276.897 34.3893 277.35 34.7539 277.701 35.2227C278.053 35.6849 278.313 36.2318 278.482 36.8633C278.652 37.4883 278.736 38.1719 278.736 38.9141V39.7246H270.846V38.25H276.93V38.1133C276.904 37.6445 276.806 37.1888 276.637 36.7461C276.474 36.3034 276.214 35.9388 275.855 35.6523C275.497 35.3659 275.009 35.2227 274.391 35.2227C273.98 35.2227 273.603 35.3105 273.258 35.4863C272.913 35.6556 272.617 35.9095 272.369 36.248C272.122 36.5866 271.93 37 271.793 37.4883C271.656 37.9766 271.588 38.5397 271.588 39.1777V39.5879C271.588 40.0892 271.656 40.5612 271.793 41.0039C271.936 41.4401 272.141 41.8242 272.408 42.1562C272.682 42.4883 273.01 42.7487 273.395 42.9375C273.785 43.1263 274.228 43.2207 274.723 43.2207C275.361 43.2207 275.901 43.0905 276.344 42.8301C276.786 42.5697 277.174 42.2214 277.506 41.7852L278.6 42.6543C278.372 42.9993 278.082 43.3281 277.73 43.6406C277.379 43.9531 276.946 44.207 276.432 44.4023C275.924 44.5977 275.322 44.6953 274.625 44.6953ZM285.27 33.9336V35.3203H279.557V33.9336H285.27ZM281.49 31.3652H283.297V41.8828C283.297 42.2409 283.352 42.5111 283.463 42.6934C283.574 42.8757 283.717 42.9961 283.893 43.0547C284.068 43.1133 284.257 43.1426 284.459 43.1426C284.609 43.1426 284.765 43.1296 284.928 43.1035C285.097 43.071 285.224 43.0449 285.309 43.0254L285.318 44.5C285.175 44.5456 284.986 44.5879 284.752 44.627C284.524 44.6725 284.247 44.6953 283.922 44.6953C283.479 44.6953 283.072 44.6074 282.701 44.4316C282.33 44.2559 282.034 43.9629 281.812 43.5527C281.598 43.1361 281.49 42.5762 281.49 41.873V31.3652Z" fill="#444444"/>
</svg>
