<svg width="141" height="177" viewBox="0 0 141 177" fill="none" xmlns="http://www.w3.org/2000/svg">
<g filter="url(#filter0_ii_16_503)">
<mask id="path-1-inside-1_16_503" fill="white">
<path d="M132.275 124.023C111.809 168.434 60.9182 188.63 18.6085 169.132C-23.7012 149.634 -41.4084 97.8247 -20.9416 53.4135C-0.474888 9.00237 50.4155 -11.1935 92.7252 8.30479C135.035 27.8031 152.742 79.612 132.275 124.023ZM22.6555 73.5052C13.8362 92.6424 21.4664 114.967 39.698 123.369C57.9297 131.771 79.8588 123.069 88.6781 103.931C97.4974 84.7943 89.8673 62.4694 71.6356 54.0674C53.404 45.6654 31.4748 54.368 22.6555 73.5052Z"/>
</mask>
<path d="M132.275 124.023C111.809 168.434 60.9182 188.63 18.6085 169.132C-23.7012 149.634 -41.4084 97.8247 -20.9416 53.4135C-0.474888 9.00237 50.4155 -11.1935 92.7252 8.30479C135.035 27.8031 152.742 79.612 132.275 124.023ZM22.6555 73.5052C13.8362 92.6424 21.4664 114.967 39.698 123.369C57.9297 131.771 79.8588 123.069 88.6781 103.931C97.4974 84.7943 89.8673 62.4694 71.6356 54.0674C53.404 45.6654 31.4748 54.368 22.6555 73.5052Z" stroke="url(#paint0_linear_16_503)" stroke-width="136" mask="url(#path-1-inside-1_16_503)"/>
</g>
<defs>
<filter id="filter0_ii_16_503" x="-55.4536" y="-17.1261" width="196.241" height="207.689" filterUnits="userSpaceOnUse" color-interpolation-filters="sRGB">
<feFlood flood-opacity="0" result="BackgroundImageFix"/>
<feBlend mode="normal" in="SourceGraphic" in2="BackgroundImageFix" result="shape"/>
<feColorMatrix in="SourceAlpha" type="matrix" values="0 0 0 0 0 0 0 0 0 0 0 0 0 0 0 0 0 0 127 0" result="hardAlpha"/>
<feOffset dx="-26" dy="-18"/>
<feGaussianBlur stdDeviation="25"/>
<feComposite in2="hardAlpha" operator="arithmetic" k2="-1" k3="1"/>
<feColorMatrix type="matrix" values="0 0 0 0 0.645189 0 0 0 0 0.426594 0 0 0 0 0.779167 0 0 0 1 0"/>
<feBlend mode="normal" in2="shape" result="effect1_innerShadow_16_503"/>
<feColorMatrix in="SourceAlpha" type="matrix" values="0 0 0 0 0 0 0 0 0 0 0 0 0 0 0 0 0 0 127 0" result="hardAlpha"/>
<feOffset dx="-8" dy="14"/>
<feGaussianBlur stdDeviation="17.5"/>
<feComposite in2="hardAlpha" operator="arithmetic" k2="-1" k3="1"/>
<feColorMatrix type="matrix" values="0 0 0 0 1 0 0 0 0 0.780238 0 0 0 0 0.230833 0 0 0 1 0"/>
<feBlend mode="normal" in2="effect1_innerShadow_16_503" result="effect2_innerShadow_16_503"/>
</filter>
<linearGradient id="paint0_linear_16_503" x1="125.554" y1="-62.9319" x2="-0.885546" y2="211.432" gradientUnits="userSpaceOnUse">
<stop stop-color="#A56DC7"/>
<stop offset="0.357292" stop-color="#FF6C99"/>
<stop offset="0.648958" stop-color="#FFC73B"/>
<stop offset="1" stop-color="#A56DC7"/>
</linearGradient>
</defs>
</svg>
