<svg width="1440" height="1023" viewBox="0 0 1440 1023" fill="none" xmlns="http://www.w3.org/2000/svg">
<path fill-rule="evenodd" clip-rule="evenodd" d="M200 95.7565C121 154.757 40.6667 173.09 0 165.757V404V561.757V780.823C111.066 748.838 372.735 729.703 564 902C757.6 1076.4 1071 1038 1234 936C1287.97 897.265 1364.35 854.089 1440 832.09V561.757V404V181.757C1404 197.757 1324.01 197.335 1250 95.7565C1148 -44.2434 1066.81 -6.927 990 57.7565C892.649 139.737 865.325 145.031 798.375 158.005L798.374 158.005C786.924 160.224 774.316 162.667 760 165.757C642.329 191.153 603.49 164.951 538.526 121.124L538.524 121.122C526.749 113.179 514.116 104.656 500 95.7565C395.749 30.0326 312.319 11.8727 200 95.7565Z" fill="white"/>
</svg>
